<?xml version="1.0" encoding="UTF-8"?>
<svg version="1.1" xmlns="http://www.w3.org/2000/svg" width="32" height="32">
<path d="M0 0 C0 1.32 0 2.64 0 4 C-0.66 4 -1.32 4 -2 4 C-1.01 4.66 -0.02 5.32 1 6 C1.66 3.69 2.32 1.38 3 -1 C3.99 -1 4.98 -1 6 -1 C6.33 0.32 6.66 1.64 7 3 C8.32 1.68 9.64 0.36 11 -1 C11.99 -0.67 12.98 -0.34 14 0 C13.67 0.598125 13.34 1.19625 13 1.8125 C11.79212012 4.05386471 11.79212012 4.05386471 12 7 C12.99 8.485 12.99 8.485 14 10 C14 10.99 14 11.98 14 13 C10.73045798 12.43628586 9.17424117 11.50037734 7 9 C6.67 10.32 6.34 11.64 6 13 C5.01 13 4.02 13 3 13 C2.67 12.34 2.34 11.68 2 11 C1.01 11.66 0.02 12.32 -1 13 C-3.5625 13.25 -3.5625 13.25 -6 13 C-6.66 12.34 -7.32 11.68 -8 11 C-8 10.01 -8 9.02 -8 8 C-6.35 8 -4.7 8 -3 8 C-4.65 7.01 -6.3 6.02 -8 5 C-7.625 2.5625 -7.625 2.5625 -7 0 C-4.3333581 -1.33332095 -2.83319697 -0.67102033 0 0 Z " fill="#0066FF" transform="translate(13,10)"/>
<path d="M0 0 C0 1.32 0 2.64 0 4 C-0.66 4 -1.32 4 -2 4 C-0.68 4.99 0.64 5.98 2 7 C1.67 8.65 1.34 10.3 1 12 C-2.375 12.625 -2.375 12.625 -6 13 C-6.66 12.34 -7.32 11.68 -8 11 C-8 10.01 -8 9.02 -8 8 C-6.35 8 -4.7 8 -3 8 C-4.65 7.01 -6.3 6.02 -8 5 C-7.625 2.5625 -7.625 2.5625 -7 0 C-4.3333581 -1.33332095 -2.83319697 -0.67102033 0 0 Z " fill="#0087FF" transform="translate(13,10)"/>
<path d="M0 0 C1.1446875 0.3403125 1.1446875 0.3403125 2.3125 0.6875 C2.3125 2.0075 2.3125 3.3275 2.3125 4.6875 C1.6525 4.6875 0.9925 4.6875 0.3125 4.6875 C-0.0175 5.6775 -0.3475 6.6675 -0.6875 7.6875 C-2.0075 7.3575 -3.3275 7.0275 -4.6875 6.6875 C-5.375 4.875 -5.375 4.875 -5.6875 2.6875 C-3.97309355 -0.07459928 -3.26180423 -0.37927956 0 0 Z " fill="#00A4FF" transform="translate(10.6875,9.3125)"/>
<path d="M0 0 C0.99 0 1.98 0 3 0 C3.33 1.32 3.66 2.64 4 4 C5.32 2.68 6.64 1.36 8 0 C8.66 0.33 9.32 0.66 10 1 C7.03 3.97 4.06 6.94 1 10 C-1.56687367 6.1496895 -0.83288724 4.41430237 0 0 Z " fill="#0080FF" transform="translate(16,9)"/>
<path d="M0 0 C1.9375 0.6875 1.9375 0.6875 4 2 C4.75 4.625 4.75 4.625 5 7 C3.125 6.8125 3.125 6.8125 1 6 C-0.25 3.4375 -0.25 3.4375 -1 1 C-0.67 0.67 -0.34 0.34 0 0 Z " fill="#004FFF" transform="translate(22,16)"/>
</svg>
